<svg width="75" height="75" viewBox="0 0 75 75" fill="none" xmlns="http://www.w3.org/2000/svg">
<path d="M7.03125 49.2188L67.9688 49.2188C69.2632 49.2188 70.3125 48.1694 70.3125 46.875V14.0625C70.3125 12.7681 69.2632 11.7188 67.9688 11.7188L7.03125 11.7188C5.73683 11.7188 4.6875 12.7681 4.6875 14.0625V46.875C4.6875 48.1694 5.73683 49.2188 7.03125 49.2188Z" stroke="#AAAAAA" stroke-width="5" stroke-linejoin="round"/>
<path d="M14.0625 63.2812H60.9375M9.375 56.25H65.625H9.375Z" stroke="#AAAAAA" stroke-width="5" stroke-linecap="round" stroke-linejoin="round"/>
<path d="M37.5 42.1875C43.9721 42.1875 49.2188 36.9408 49.2188 30.4688C49.2188 23.9967 43.9721 18.75 37.5 18.75C31.0279 18.75 25.7812 23.9967 25.7812 30.4688C25.7812 36.9408 31.0279 42.1875 37.5 42.1875Z" stroke="#AAAAAA" stroke-width="5" stroke-linecap="round" stroke-linejoin="round"/>
<path d="M70.3125 23.4375C67.2045 23.4375 64.2238 22.2028 62.0261 20.0052C59.8284 17.8075 58.5938 14.8268 58.5938 11.7188M4.6875 23.4375C6.22643 23.4375 7.75029 23.1344 9.17207 22.5455C10.5939 21.9565 11.8857 21.0933 12.9739 20.0052C14.0621 18.917 14.9253 17.6251 15.5142 16.2033C16.1031 14.7815 16.4062 13.2577 16.4062 11.7188M70.3125 37.5C67.2045 37.5 64.2238 38.7347 62.0261 40.9323C59.8284 43.13 58.5938 46.1107 58.5938 49.2188M4.6875 37.5C6.22643 37.5 7.75029 37.8031 9.17207 38.392C10.5939 38.981 11.8857 39.8442 12.9739 40.9323C14.0621 42.0205 14.9253 43.3124 15.5142 44.7342C16.1031 46.156 16.4062 47.6798 16.4062 49.2188" stroke="#AAAAAA" stroke-width="5" stroke-linecap="round" stroke-linejoin="round"/>
</svg>
