<svg width="75" height="75" viewBox="0 0 75 75" fill="none" xmlns="http://www.w3.org/2000/svg">
<path d="M59.7656 9.375H15.2344C13.0607 9.38118 10.9778 10.2474 9.44072 11.7845C7.90367 13.3215 7.03743 15.4044 7.03125 17.5781V45.7031C7.03743 47.8768 7.90367 49.9597 9.44072 51.4968C10.9778 53.0338 13.0607 53.9001 15.2344 53.9062H21.0938V65.625L34.8223 54.1787C35.0331 54.0026 35.2991 53.9062 35.5737 53.9062H59.7656C61.9393 53.9001 64.0222 53.0338 65.5593 51.4968C67.0963 49.9597 67.9626 47.8768 67.9688 45.7031V17.5781C67.9626 15.4044 67.0963 13.3215 65.5593 11.7845C64.0222 10.2474 61.9393 9.38118 59.7656 9.375V9.375Z" stroke="#AAAAAA" stroke-width="5" stroke-linejoin="round"/>
<path d="M23.4375 36.3281C26.0263 36.3281 28.125 34.2295 28.125 31.6406C28.125 29.0518 26.0263 26.9531 23.4375 26.9531C20.8487 26.9531 18.75 29.0518 18.75 31.6406C18.75 34.2295 20.8487 36.3281 23.4375 36.3281Z" fill="#AAAAAA"/>
<path d="M37.5 36.3281C40.0888 36.3281 42.1875 34.2295 42.1875 31.6406C42.1875 29.0518 40.0888 26.9531 37.5 26.9531C34.9112 26.9531 32.8125 29.0518 32.8125 31.6406C32.8125 34.2295 34.9112 36.3281 37.5 36.3281Z" fill="#AAAAAA"/>
<path d="M51.5625 36.3281C54.1513 36.3281 56.25 34.2295 56.25 31.6406C56.25 29.0518 54.1513 26.9531 51.5625 26.9531C48.9737 26.9531 46.875 29.0518 46.875 31.6406C46.875 34.2295 48.9737 36.3281 51.5625 36.3281Z" fill="#AAAAAA"/>
</svg>
