<svg width="75" height="75" viewBox="0 0 75 75" fill="none" xmlns="http://www.w3.org/2000/svg">
<path d="M37.4502 16.4062C26.0332 16.4062 14.3218 23.0142 5.10205 36.23C4.83889 36.6114 4.69467 37.0622 4.68763 37.5255C4.68059 37.9888 4.81104 38.4438 5.0625 38.833C12.1465 49.9219 23.7012 58.5938 37.4502 58.5938C51.0498 58.5938 62.8418 49.8955 69.9389 38.7817C70.1845 38.4002 70.3151 37.956 70.3151 37.5022C70.3151 37.0484 70.1845 36.6042 69.9389 36.2227C62.8257 25.2363 50.9473 16.4062 37.4502 16.4062Z" stroke="#AAAAAA" stroke-width="5" stroke-linecap="round" stroke-linejoin="round"/>
<path d="M37.5 49.2188C43.9721 49.2188 49.2188 43.9721 49.2188 37.5C49.2188 31.0279 43.9721 25.7812 37.5 25.7812C31.0279 25.7812 25.7812 31.0279 25.7812 37.5C25.7812 43.9721 31.0279 49.2188 37.5 49.2188Z" stroke="#AAAAAA" stroke-width="5" stroke-miterlimit="10"/>
</svg>
