<?xml version="1.0" encoding="UTF-8" standalone="no"?><!-- Generator: Gravit.io --><svg xmlns="http://www.w3.org/2000/svg" xmlns:xlink="http://www.w3.org/1999/xlink" style="isolation:isolate" viewBox="0 0 500 500" width="500pt" height="500pt"><defs><clipPath id="_clipPath_bTU1RXHe6DcuZs9WkWnENHeWmPpCPzhP"><rect width="500" height="500"/></clipPath></defs><g clip-path="url(#_clipPath_bTU1RXHe6DcuZs9WkWnENHeWmPpCPzhP)"><rect width="500" height="500" style="fill:rgb(0,0,0)" fill-opacity="0"/><g><g filter="url(#WuGebh3pHdK7eqvdOe25rTpw0YfsloV5)"><defs><filter id="Lj8Mbe3EbzkfauFRr9ocC0bqYiDiHMhW" x="-200%" y="-200%" width="400%" height="400%" filterUnits="objectBoundingBox" color-interpolation-filters="sRGB"><feGaussianBlur xmlns="http://www.w3.org/2000/svg" in="SourceGraphic" stdDeviation="4.293609062839028"/><feOffset xmlns="http://www.w3.org/2000/svg" dx="0" dy="0" result="pf_100_offsetBlur"/><feFlood xmlns="http://www.w3.org/2000/svg" flood-color="#000000" flood-opacity="0.65"/><feComposite xmlns="http://www.w3.org/2000/svg" in2="pf_100_offsetBlur" operator="in" result="pf_100_dropShadow"/><feBlend xmlns="http://www.w3.org/2000/svg" in="SourceGraphic" in2="pf_100_dropShadow" mode="normal"/></filter></defs><g filter="url(#Lj8Mbe3EbzkfauFRr9ocC0bqYiDiHMhW)"><path d=" M 429.484 226.039 C 447.386 237.429 447.386 263.563 429.484 274.953 L 105.842 480.866 C 86.545 493.144 61.294 479.282 61.294 456.409 L 61.294 44.583 C 61.294 21.71 86.545 7.848 105.842 20.126 L 429.484 226.039 Z " fill="rgb(255,69,0)"/></g></g><defs><filter id="WuGebh3pHdK7eqvdOe25rTpw0YfsloV5" x="-200%" y="-200%" width="400%" height="400%" filterUnits="objectBoundingBox" color-interpolation-filters="sRGB"><feGaussianBlur xmlns="http://www.w3.org/2000/svg" in="SourceGraphic" stdDeviation="2"/><feOffset xmlns="http://www.w3.org/2000/svg" dx="0" dy="4" result="pf_100_offsetBlur"/><feFlood xmlns="http://www.w3.org/2000/svg" flood-color="#000000" flood-opacity="0"/><feComposite xmlns="http://www.w3.org/2000/svg" in2="pf_100_offsetBlur" operator="in" result="pf_100_dropShadow"/><feBlend xmlns="http://www.w3.org/2000/svg" in="SourceGraphic" in2="pf_100_dropShadow" mode="normal"/></filter></defs><clipPath id="_clipPath_X5aXdahiZWR7abjPWdJI6nWDX9BisR7X"><rect x="251.773" y="207.334" width="281.91" height="282.3" transform="matrix(0.386,-0.923,0.923,0.386,-80.271,576.403)" fill="rgb(255,255,255)"/></clipPath><g clip-path="url(#_clipPath_X5aXdahiZWR7abjPWdJI6nWDX9BisR7X)"><g><g filter="url(#xYiCaykv8tgK7bwZ7o9AMBU7GbieJzbN)"><defs><filter id="j1nZ0SV3D9qiqScdpzrvaxDOOl1qIA6B" x="-200%" y="-200%" width="400%" height="400%" filterUnits="objectBoundingBox" color-interpolation-filters="sRGB"><feGaussianBlur xmlns="http://www.w3.org/2000/svg" in="SourceGraphic" stdDeviation="2.146804531419514"/><feOffset xmlns="http://www.w3.org/2000/svg" dx="0" dy="0" result="pf_100_offsetBlur"/><feFlood xmlns="http://www.w3.org/2000/svg" flood-color="#000000" flood-opacity="0.65"/><feComposite xmlns="http://www.w3.org/2000/svg" in2="pf_100_offsetBlur" operator="in" result="pf_100_dropShadow"/><feBlend xmlns="http://www.w3.org/2000/svg" in="SourceGraphic" in2="pf_100_dropShadow" mode="normal"/></filter></defs><g filter="url(#j1nZ0SV3D9qiqScdpzrvaxDOOl1qIA6B)"><path d=" M 336.492 194.08 C 333.432 195.172 330.62 196.861 328.221 199.05 C 325.821 201.238 323.882 203.882 322.517 206.828 L 293.907 268.171 C 292.039 272.198 291.835 276.801 293.343 280.98 L 358.932 460.856 C 361.179 466.998 365.773 472.001 371.704 474.767 C 377.637 477.533 384.422 477.835 390.573 475.609 L 476.269 444.485 C 482.417 442.246 487.422 437.66 490.186 431.735 C 492.949 425.808 493.246 419.027 491.009 412.879 L 425.447 233.076 C 423.916 228.904 420.799 225.504 416.774 223.613 L 355.309 194.955 C 352.386 193.57 349.218 192.78 345.987 192.63 C 342.757 192.479 339.529 192.972 336.492 194.08 L 336.492 194.08 Z  M 374.544 262.245 C 373.071 265.402 370.693 268.053 367.712 269.86 C 364.73 271.666 361.277 272.548 357.792 272.395 C 354.306 272.241 350.944 271.058 348.129 268.996 C 345.315 266.933 343.174 264.084 341.98 260.808 C 340.785 257.533 340.589 253.977 341.417 250.592 C 342.244 247.207 344.058 244.144 346.629 241.79 C 349.2 239.437 352.413 237.898 355.861 237.37 C 359.309 236.841 362.837 237.347 366 238.821 C 370.241 240.798 373.524 244.377 375.126 248.77 C 376.729 253.162 376.519 258.009 374.544 262.245 Z " fill="rgb(40,40,40)"/></g></g><defs><filter id="xYiCaykv8tgK7bwZ7o9AMBU7GbieJzbN" x="-200%" y="-200%" width="400%" height="400%" filterUnits="objectBoundingBox" color-interpolation-filters="sRGB"><feGaussianBlur xmlns="http://www.w3.org/2000/svg" in="SourceGraphic" stdDeviation="2"/><feOffset xmlns="http://www.w3.org/2000/svg" dx="0" dy="4" result="pf_100_offsetBlur"/><feFlood xmlns="http://www.w3.org/2000/svg" flood-color="#000000" flood-opacity="0"/><feComposite xmlns="http://www.w3.org/2000/svg" in2="pf_100_offsetBlur" operator="in" result="pf_100_dropShadow"/><feBlend xmlns="http://www.w3.org/2000/svg" in="SourceGraphic" in2="pf_100_dropShadow" mode="normal"/></filter></defs></g></g><g filter="url(#5HsIUGQsuxeoxTfIb3v01W7ZvMZY6Bc1)"><defs><filter id="hr4MKbDuqy4UjiJSsGXDK4YlEwDvSVyL" x="-200%" y="-200%" width="400%" height="400%" filterUnits="objectBoundingBox" color-interpolation-filters="sRGB"><feGaussianBlur xmlns="http://www.w3.org/2000/svg" in="SourceGraphic" stdDeviation="2.146804531419514"/><feOffset xmlns="http://www.w3.org/2000/svg" dx="0" dy="0" result="pf_100_offsetBlur"/><feFlood xmlns="http://www.w3.org/2000/svg" flood-color="#000000" flood-opacity="0.65"/><feComposite xmlns="http://www.w3.org/2000/svg" in2="pf_100_offsetBlur" operator="in" result="pf_100_dropShadow"/><feBlend xmlns="http://www.w3.org/2000/svg" in="SourceGraphic" in2="pf_100_dropShadow" mode="normal"/></filter></defs><g filter="url(#hr4MKbDuqy4UjiJSsGXDK4YlEwDvSVyL)"><path d=" M 366.269 339.905 C 367.054 339.62 367.615 339.102 367.951 338.352 C 368.289 337.61 368.438 336.506 368.398 335.043 C 368.29 333.022 368.527 331.434 369.11 330.274 C 369.705 329.12 370.69 328.293 372.065 327.794 C 373.466 327.285 374.763 327.273 375.955 327.759 C 377.151 328.252 378.093 329.181 378.785 330.545 L 381.59 329.526 L 382.286 331.434 L 379.468 332.457 C 379.794 333.963 379.599 335.295 378.88 336.455 C 378.165 337.624 376.932 338.526 375.181 339.162 L 374.322 336.806 C 375.526 336.369 376.379 335.735 376.878 334.906 C 377.378 334.076 377.451 333.175 377.097 332.202 C 376.727 331.186 376.178 330.505 375.452 330.16 C 374.735 329.811 373.907 329.807 372.968 330.148 C 372.096 330.465 371.504 331 371.188 331.752 C 370.884 332.51 370.755 333.616 370.801 335.069 C 370.859 336.527 370.764 337.712 370.516 338.623 C 370.28 339.54 369.887 340.293 369.337 340.879 C 368.789 341.474 368.064 341.936 367.159 342.265 C 365.715 342.789 364.394 342.776 363.197 342.224 C 362.003 341.682 361.04 340.659 360.308 339.156 L 357.861 340.045 L 357.17 338.149 L 359.617 337.261 C 359.183 335.621 359.292 334.169 359.944 332.908 C 360.609 331.651 361.785 330.716 363.477 330.101 L 364.34 332.471 C 363.153 332.902 362.353 333.545 361.94 334.401 C 361.526 335.257 361.529 336.257 361.946 337.401 C 362.354 338.519 362.944 339.301 363.714 339.745 C 364.486 340.19 365.338 340.244 366.269 339.905 Z  M 371.639 354.631 C 372.425 354.345 372.985 353.828 373.321 353.078 C 373.659 352.336 373.809 351.232 373.768 349.769 C 373.66 347.748 373.898 346.158 374.481 345 C 375.075 343.846 376.061 343.019 377.435 342.52 C 378.836 342.011 380.133 341.999 381.325 342.484 C 382.521 342.978 383.464 343.907 384.155 345.27 L 386.96 344.251 L 387.656 346.159 L 384.838 347.182 C 385.164 348.689 384.969 350.021 384.251 351.18 C 383.535 352.35 382.302 353.251 380.551 353.888 L 379.692 351.532 C 380.897 351.095 381.749 350.461 382.249 349.631 C 382.749 348.801 382.822 347.901 382.467 346.927 C 382.097 345.911 381.548 345.23 380.822 344.886 C 380.105 344.537 379.278 344.533 378.338 344.874 C 377.466 345.191 376.874 345.725 376.558 346.478 C 376.254 347.236 376.125 348.342 376.172 349.794 C 376.23 351.252 376.134 352.438 375.886 353.349 C 375.65 354.266 375.257 355.019 374.707 355.605 C 374.16 356.2 373.434 356.661 372.529 356.991 C 371.085 357.515 369.764 357.502 368.567 356.95 C 367.373 356.408 366.41 355.385 365.678 353.882 L 363.231 354.771 L 362.54 352.875 L 364.988 351.987 C 364.553 350.346 364.662 348.895 365.315 347.633 C 365.979 346.377 367.156 345.442 368.847 344.827 L 369.711 347.196 C 368.524 347.628 367.723 348.271 367.31 349.127 C 366.897 349.982 366.899 350.983 367.316 352.126 C 367.724 353.245 368.314 354.027 369.085 354.471 C 369.857 354.916 370.708 354.969 371.639 354.631 Z  M 377.009 369.357 C 377.795 369.071 378.355 368.554 378.691 367.803 C 379.03 367.061 379.179 365.958 379.138 364.494 C 379.031 362.474 379.268 360.884 379.851 359.725 C 380.446 358.571 381.431 357.744 382.805 357.245 C 384.207 356.736 385.503 356.725 386.695 357.21 C 387.891 357.704 388.834 358.632 389.525 359.996 L 392.331 358.977 L 393.026 360.885 L 390.208 361.908 C 390.534 363.414 390.339 364.747 389.621 365.906 C 388.906 367.075 387.672 367.977 385.921 368.614 L 385.062 366.257 C 386.267 365.82 387.119 365.187 387.62 364.357 C 388.12 363.527 388.192 362.626 387.837 361.652 C 387.467 360.637 386.918 359.956 386.193 359.612 C 385.476 359.263 384.648 359.258 383.708 359.6 C 382.837 359.916 382.244 360.451 381.928 361.204 C 381.624 361.962 381.496 363.067 381.542 364.52 C 381.6 365.978 381.504 367.163 381.256 368.075 C 381.02 368.992 380.627 369.744 380.077 370.33 C 379.53 370.925 378.804 371.387 377.899 371.716 C 376.455 372.24 375.134 372.228 373.937 371.676 C 372.744 371.133 371.781 370.11 371.048 368.607 L 368.602 369.496 L 367.91 367.6 L 370.358 366.712 C 369.923 365.071 370.033 363.62 370.685 362.359 C 371.349 361.103 372.527 360.168 374.218 359.552 L 375.081 361.922 C 373.894 362.354 373.094 362.997 372.68 363.852 C 372.267 364.708 372.269 365.709 372.687 366.852 C 373.095 367.971 373.684 368.752 374.455 369.197 C 375.227 369.641 376.078 369.695 377.009 369.357 Z  M 382.379 384.082 C 383.165 383.797 383.726 383.279 384.062 382.529 C 384.4 381.787 384.549 380.683 384.508 379.22 C 384.401 377.199 384.638 375.609 385.221 374.451 C 385.816 373.297 386.801 372.47 388.176 371.971 C 389.577 371.462 390.874 371.45 392.065 371.935 C 393.261 372.429 394.205 373.358 394.895 374.722 L 397.701 373.703 L 398.396 375.61 L 395.578 376.634 C 395.905 378.14 395.709 379.472 394.991 380.632 C 394.276 381.801 393.042 382.703 391.291 383.339 L 390.432 380.983 C 391.637 380.546 392.489 379.912 392.99 379.083 C 393.49 378.253 393.562 377.352 393.208 376.378 C 392.837 375.362 392.289 374.682 391.563 374.336 C 390.846 373.988 390.018 373.984 389.079 374.325 C 388.207 374.642 387.614 375.177 387.299 375.929 C 386.995 376.687 386.866 377.793 386.912 379.246 C 386.97 380.704 386.874 381.889 386.626 382.8 C 386.39 383.717 385.997 384.469 385.448 385.056 C 384.9 385.651 384.174 386.113 383.269 386.442 C 381.825 386.966 380.506 386.953 379.308 386.401 C 378.114 385.859 377.151 384.836 376.419 383.333 L 373.972 384.222 L 373.28 382.326 L 375.728 381.438 C 375.293 379.796 375.403 378.346 376.056 377.085 C 376.719 375.828 377.897 374.892 379.588 374.278 L 380.451 376.648 C 379.265 377.078 378.464 377.722 378.05 378.578 C 377.637 379.434 377.639 380.434 378.057 381.578 C 378.465 382.696 379.054 383.478 379.826 383.922 C 380.597 384.367 381.448 384.421 382.379 384.082 Z " fill="rgb(222,222,222)"/></g></g><defs><filter id="5HsIUGQsuxeoxTfIb3v01W7ZvMZY6Bc1" x="-200%" y="-200%" width="400%" height="400%" filterUnits="objectBoundingBox" color-interpolation-filters="sRGB"><feGaussianBlur xmlns="http://www.w3.org/2000/svg" in="SourceGraphic" stdDeviation="2"/><feOffset xmlns="http://www.w3.org/2000/svg" dx="0" dy="4" result="pf_100_offsetBlur"/><feFlood xmlns="http://www.w3.org/2000/svg" flood-color="#000000" flood-opacity="0"/><feComposite xmlns="http://www.w3.org/2000/svg" in2="pf_100_offsetBlur" operator="in" result="pf_100_dropShadow"/><feBlend xmlns="http://www.w3.org/2000/svg" in="SourceGraphic" in2="pf_100_dropShadow" mode="normal"/></filter></defs><g filter="url(#ItLQzx4WPMx5R69dGf2w8aSyA2Cd5lEK)"><defs><filter id="zpxRkTWlyYrzMZF8KmOIqJQlZYXACBCp" x="-200%" y="-200%" width="400%" height="400%" filterUnits="objectBoundingBox" color-interpolation-filters="sRGB"><feGaussianBlur xmlns="http://www.w3.org/2000/svg" in="SourceGraphic" stdDeviation="2.146804531419514"/><feOffset xmlns="http://www.w3.org/2000/svg" dx="0" dy="0" result="pf_100_offsetBlur"/><feFlood xmlns="http://www.w3.org/2000/svg" flood-color="#000000" flood-opacity="0.65"/><feComposite xmlns="http://www.w3.org/2000/svg" in2="pf_100_offsetBlur" operator="in" result="pf_100_dropShadow"/><feBlend xmlns="http://www.w3.org/2000/svg" in="SourceGraphic" in2="pf_100_dropShadow" mode="normal"/></filter></defs><g filter="url(#zpxRkTWlyYrzMZF8KmOIqJQlZYXACBCp)"><path d=" M 407.856 277.19 L 406.292 272.901 L 402.769 274.181 L 401.877 271.735 L 405.4 270.456 L 404.433 267.805 L 406.457 267.069 L 407.424 269.72 L 409.18 269.083 L 408.212 266.432 L 410.224 265.702 L 411.191 268.352 L 420.53 264.96 L 423.037 271.836 C 423.766 273.833 423.836 275.601 423.245 277.14 C 422.656 278.678 421.494 279.763 419.76 280.393 C 417.94 281.053 416.33 281.001 414.929 280.234 C 413.539 279.472 412.463 278.06 411.701 275.998 L 410.071 271.528 L 408.317 272.166 L 409.881 276.456 L 407.856 277.19 Z  M 412.083 270.798 L 413.699 275.228 C 414.181 276.552 414.86 277.446 415.735 277.911 C 416.611 278.376 417.646 278.391 418.842 277.957 C 419.927 277.563 420.672 276.886 421.076 275.927 C 421.49 274.965 421.478 273.872 421.041 272.648 L 419.397 268.141 L 412.083 270.798 Z  M 414.207 294.605 L 412.643 290.315 L 409.12 291.595 L 408.229 289.149 L 411.751 287.87 L 410.785 285.22 L 412.809 284.485 L 413.775 287.135 L 415.53 286.498 L 414.564 283.847 L 416.575 283.116 L 417.541 285.766 L 426.88 282.374 L 429.388 289.25 C 430.116 291.248 430.186 293.017 429.597 294.555 C 429.006 296.093 427.844 297.178 426.111 297.808 C 424.292 298.468 422.681 298.416 421.279 297.648 C 419.89 296.887 418.813 295.475 418.052 293.412 L 416.422 288.943 L 414.667 289.581 L 416.231 293.87 L 414.207 294.605 Z  M 418.433 288.212 L 420.049 292.643 C 420.532 293.966 421.211 294.86 422.087 295.325 C 422.962 295.79 423.998 295.806 425.194 295.371 C 426.278 294.977 427.022 294.301 427.427 293.342 C 427.84 292.38 427.828 291.286 427.392 290.063 L 425.749 285.555 L 418.433 288.212 Z  M 420.558 312.02 L 418.994 307.73 L 415.471 309.01 L 414.579 306.564 L 418.101 305.285 L 417.135 302.634 L 419.159 301.898 L 420.126 304.549 L 421.881 303.912 L 420.914 301.262 L 422.925 300.531 L 423.893 303.181 L 433.232 299.789 L 435.739 306.665 C 436.468 308.662 436.536 310.43 435.947 311.969 C 435.358 313.509 434.196 314.593 432.462 315.222 C 430.642 315.883 429.032 315.83 427.631 315.063 C 426.241 314.302 425.165 312.889 424.402 310.827 L 422.773 306.357 L 421.017 306.995 L 422.583 311.285 L 420.558 312.02 Z  M 424.785 305.627 L 426.4 310.058 C 426.883 311.381 427.562 312.275 428.437 312.74 C 429.313 313.205 430.348 313.22 431.544 312.786 C 432.628 312.392 433.374 311.716 433.778 310.756 C 434.192 309.794 434.18 308.701 433.743 307.477 L 432.099 302.97 L 424.785 305.627 Z  M 426.909 329.434 L 425.345 325.145 L 421.822 326.425 L 420.929 323.979 L 424.453 322.7 L 423.486 320.049 L 425.51 319.314 L 426.477 321.964 L 428.232 321.327 L 427.266 318.676 L 429.277 317.946 L 430.243 320.596 L 439.582 317.204 L 442.09 324.079 C 442.818 326.077 442.888 327.846 442.299 329.384 C 441.708 330.922 440.546 332.007 438.812 332.637 C 436.994 333.297 435.383 333.245 433.981 332.478 C 432.592 331.716 431.515 330.304 430.754 328.242 L 429.124 323.772 L 427.369 324.41 L 428.933 328.699 L 426.909 329.434 Z  M 431.135 323.042 L 432.751 327.472 C 433.233 328.796 433.913 329.69 434.789 330.155 C 435.664 330.62 436.7 330.635 437.896 330.2 C 438.98 329.806 439.724 329.13 440.129 328.171 C 440.542 327.209 440.53 326.116 440.094 324.892 L 438.45 320.385 L 431.135 323.042 Z " fill="rgb(222,222,222)"/></g></g><defs><filter id="ItLQzx4WPMx5R69dGf2w8aSyA2Cd5lEK" x="-200%" y="-200%" width="400%" height="400%" filterUnits="objectBoundingBox" color-interpolation-filters="sRGB"><feGaussianBlur xmlns="http://www.w3.org/2000/svg" in="SourceGraphic" stdDeviation="2"/><feOffset xmlns="http://www.w3.org/2000/svg" dx="0" dy="4" result="pf_100_offsetBlur"/><feFlood xmlns="http://www.w3.org/2000/svg" flood-color="#000000" flood-opacity="0"/><feComposite xmlns="http://www.w3.org/2000/svg" in2="pf_100_offsetBlur" operator="in" result="pf_100_dropShadow"/><feBlend xmlns="http://www.w3.org/2000/svg" in="SourceGraphic" in2="pf_100_dropShadow" mode="normal"/></filter></defs><defs><filter id="sLsPhc9gEpePB4rjy7hjZUd07dIu9G9v" x="-200%" y="-200%" width="400%" height="400%" filterUnits="objectBoundingBox" color-interpolation-filters="sRGB"><feGaussianBlur xmlns="http://www.w3.org/2000/svg" in="SourceGraphic" stdDeviation="1.2880827188517086"/><feOffset xmlns="http://www.w3.org/2000/svg" dx="0" dy="0" result="pf_100_offsetBlur"/><feFlood xmlns="http://www.w3.org/2000/svg" flood-color="#000000" flood-opacity="0.65"/><feComposite xmlns="http://www.w3.org/2000/svg" in2="pf_100_offsetBlur" operator="in" result="pf_100_dropShadow"/><feBlend xmlns="http://www.w3.org/2000/svg" in="SourceGraphic" in2="pf_100_dropShadow" mode="normal"/></filter></defs><g filter="url(#sLsPhc9gEpePB4rjy7hjZUd07dIu9G9v)"><path d=" M 253.165 283.56 L 208.71 283.56 C 208.219 283.56 207.748 283.366 207.4 283.019 C 207.053 282.672 206.858 282.202 206.858 281.711 C 206.858 281.221 207.053 280.751 207.4 280.405 C 207.748 280.058 208.219 279.863 208.71 279.863 L 253.165 279.863 C 253.657 279.863 254.128 280.058 254.475 280.405 C 254.822 280.751 255.018 281.221 255.018 281.711 C 255.018 282.202 254.822 282.672 254.475 283.019 C 254.128 283.366 253.657 283.56 253.165 283.56 Z  M 249.461 289.106 L 212.415 289.106 C 211.923 289.106 211.453 288.911 211.105 288.564 C 210.757 288.217 210.563 287.747 210.563 287.258 C 210.563 286.767 210.757 286.297 211.105 285.95 C 211.453 285.603 211.923 285.409 212.415 285.409 L 249.461 285.409 C 249.951 285.409 250.423 285.603 250.771 285.95 C 251.117 286.297 251.313 286.767 251.313 287.258 C 251.313 287.747 251.117 288.217 250.771 288.564 C 250.423 288.911 249.951 289.106 249.461 289.106 Z  M 205.006 268.771 L 203.154 268.771 L 203.154 274.317 C 203.154 275.298 203.544 276.238 204.238 276.932 C 204.933 277.625 205.875 278.014 206.858 278.014 L 212.415 278.014 L 212.415 276.165 C 212.413 274.205 211.631 272.326 210.242 270.939 C 208.854 269.553 206.971 268.773 205.006 268.771 L 205.006 268.771 Z " fill="rgb(40,40,40)"/></g><defs><filter id="7xCWbYcLqz8Z1pvISNNh8FNDKewTTYd7" x="-200%" y="-200%" width="400%" height="400%" filterUnits="objectBoundingBox" color-interpolation-filters="sRGB"><feGaussianBlur xmlns="http://www.w3.org/2000/svg" in="SourceGraphic" stdDeviation="1.2880827188517086"/><feOffset xmlns="http://www.w3.org/2000/svg" dx="0" dy="0" result="pf_100_offsetBlur"/><feFlood xmlns="http://www.w3.org/2000/svg" flood-color="#000000" flood-opacity="0.65"/><feComposite xmlns="http://www.w3.org/2000/svg" in2="pf_100_offsetBlur" operator="in" result="pf_100_dropShadow"/><feBlend xmlns="http://www.w3.org/2000/svg" in="SourceGraphic" in2="pf_100_dropShadow" mode="normal"/></filter></defs><g filter="url(#7xCWbYcLqz8Z1pvISNNh8FNDKewTTYd7)"><path d=" M 256.87 265.074 L 258.722 265.074 L 258.722 257.679 L 256.87 257.679 C 253.923 257.675 251.098 256.506 249.015 254.427 C 246.931 252.347 245.759 249.528 245.756 246.587 L 245.756 244.738 L 216.12 244.738 L 216.12 246.587 C 216.116 249.528 214.944 252.347 212.86 254.427 C 210.778 256.506 207.952 257.675 205.006 257.679 L 203.154 257.679 L 203.154 265.074 L 205.006 265.074 C 207.952 265.077 210.778 266.247 212.86 268.327 C 214.944 270.405 216.116 273.224 216.12 276.165 L 216.12 278.014 L 245.756 278.014 L 245.756 276.165 C 245.759 273.224 246.931 270.405 249.015 268.327 C 251.098 266.247 253.923 265.077 256.87 265.074 L 256.87 265.074 Z  M 230.938 272.469 C 228.739 272.469 226.591 271.818 224.763 270.6 C 222.935 269.38 221.512 267.648 220.67 265.621 C 219.829 263.594 219.609 261.364 220.037 259.213 C 220.466 257.061 221.524 255.085 223.079 253.533 C 224.634 251.982 226.613 250.926 228.769 250.497 C 230.925 250.07 233.16 250.289 235.19 251.129 C 237.222 251.968 238.958 253.39 240.178 255.214 C 241.399 257.038 242.052 259.183 242.052 261.376 C 242.048 264.317 240.876 267.136 238.792 269.216 C 236.71 271.295 233.884 272.465 230.938 272.469 L 230.938 272.469 Z " fill="rgb(40,40,40)"/></g><defs><filter id="SIKK93uiYleOoQsvFFZwIEEJDXbk8Rhb" x="-200%" y="-200%" width="400%" height="400%" filterUnits="objectBoundingBox" color-interpolation-filters="sRGB"><feGaussianBlur xmlns="http://www.w3.org/2000/svg" in="SourceGraphic" stdDeviation="1.2880827188517086"/><feOffset xmlns="http://www.w3.org/2000/svg" dx="0" dy="0" result="pf_100_offsetBlur"/><feFlood xmlns="http://www.w3.org/2000/svg" flood-color="#000000" flood-opacity="0.65"/><feComposite xmlns="http://www.w3.org/2000/svg" in2="pf_100_offsetBlur" operator="in" result="pf_100_dropShadow"/><feBlend xmlns="http://www.w3.org/2000/svg" in="SourceGraphic" in2="pf_100_dropShadow" mode="normal"/></filter></defs><g filter="url(#SIKK93uiYleOoQsvFFZwIEEJDXbk8Rhb)"><path d=" M 230.938 268.771 C 235.029 268.771 238.347 265.46 238.347 261.376 C 238.347 257.292 235.029 253.982 230.938 253.982 C 226.845 253.982 223.529 257.292 223.529 261.376 C 223.529 265.46 226.845 268.771 230.938 268.771 Z " fill="rgb(40,40,40)"/></g><defs><filter id="ZWuP9JsYnG72tBC7Zf1U60PFsEqjxBwH" x="-200%" y="-200%" width="400%" height="400%" filterUnits="objectBoundingBox" color-interpolation-filters="sRGB"><feGaussianBlur xmlns="http://www.w3.org/2000/svg" in="SourceGraphic" stdDeviation="1.2880827188517086"/><feOffset xmlns="http://www.w3.org/2000/svg" dx="0" dy="0" result="pf_100_offsetBlur"/><feFlood xmlns="http://www.w3.org/2000/svg" flood-color="#000000" flood-opacity="0.65"/><feComposite xmlns="http://www.w3.org/2000/svg" in2="pf_100_offsetBlur" operator="in" result="pf_100_dropShadow"/><feBlend xmlns="http://www.w3.org/2000/svg" in="SourceGraphic" in2="pf_100_dropShadow" mode="normal"/></filter></defs><g filter="url(#ZWuP9JsYnG72tBC7Zf1U60PFsEqjxBwH)"><path d=" M 249.461 276.165 L 249.461 278.014 L 255.018 278.014 C 256 278.014 256.942 277.625 257.636 276.932 C 258.332 276.238 258.722 275.298 258.722 274.317 L 258.722 268.771 L 256.87 268.771 C 254.905 268.773 253.022 269.553 251.633 270.939 C 250.243 272.326 249.463 274.205 249.461 276.165 Z  M 256.87 253.982 L 258.722 253.982 L 258.722 248.436 C 258.722 247.456 258.332 246.515 257.636 245.822 C 256.942 245.128 256 244.738 255.018 244.738 L 249.461 244.738 L 249.461 246.587 C 249.463 248.548 250.243 250.427 251.633 251.813 C 253.022 253.2 254.905 253.98 256.87 253.982 L 256.87 253.982 Z  M 212.415 246.587 L 212.415 244.738 L 206.858 244.738 C 205.875 244.738 204.933 245.128 204.238 245.822 C 203.544 246.515 203.154 247.456 203.154 248.436 L 203.154 253.982 L 205.006 253.982 C 206.971 253.98 208.854 253.2 210.242 251.813 C 211.631 250.427 212.413 248.548 212.415 246.587 L 212.415 246.587 Z " fill="rgb(40,40,40)"/></g><g filter="url(#01jyq75OK2Aj5I1FACqGfQQT5xJzBrY7)"><defs><filter id="cBY4CG1MsgKNUStCKoFRqFNBcqzdmwQh" x="-200%" y="-200%" width="400%" height="400%" filterUnits="objectBoundingBox" color-interpolation-filters="sRGB"><feGaussianBlur xmlns="http://www.w3.org/2000/svg" in="SourceGraphic" stdDeviation="1.2880827188517086"/><feOffset xmlns="http://www.w3.org/2000/svg" dx="0" dy="0" result="pf_100_offsetBlur"/><feFlood xmlns="http://www.w3.org/2000/svg" flood-color="#000000" flood-opacity="0.65"/><feComposite xmlns="http://www.w3.org/2000/svg" in2="pf_100_offsetBlur" operator="in" result="pf_100_dropShadow"/><feBlend xmlns="http://www.w3.org/2000/svg" in="SourceGraphic" in2="pf_100_dropShadow" mode="normal"/></filter></defs><g filter="url(#cBY4CG1MsgKNUStCKoFRqFNBcqzdmwQh)"><path d=" M 194.11 301.276 C 191.653 301.276 189.463 302.94 189.161 305.378 C 188.508 310.658 189.111 316.149 191.123 321.397 C 196.068 334.29 208.448 342.803 222.257 342.803 L 235.019 342.803 C 248.828 342.803 261.208 334.29 266.152 321.397 C 268.165 316.149 268.768 310.658 268.114 305.378 C 267.812 302.94 265.623 301.276 263.165 301.276 L 194.11 301.276 Z " fill-rule="evenodd" fill="rgb(40,40,40)"/></g><defs><filter id="YdB34XluXfZ4XPcJY07H6QOi35hINhqp" x="-200%" y="-200%" width="400%" height="400%" filterUnits="objectBoundingBox" color-interpolation-filters="sRGB"><feGaussianBlur xmlns="http://www.w3.org/2000/svg" in="SourceGraphic" stdDeviation="1.2880827188517086"/><feOffset xmlns="http://www.w3.org/2000/svg" dx="0" dy="0" result="pf_100_offsetBlur"/><feFlood xmlns="http://www.w3.org/2000/svg" flood-color="#000000" flood-opacity="0.65"/><feComposite xmlns="http://www.w3.org/2000/svg" in2="pf_100_offsetBlur" operator="in" result="pf_100_dropShadow"/><feBlend xmlns="http://www.w3.org/2000/svg" in="SourceGraphic" in2="pf_100_dropShadow" mode="normal"/></filter></defs><g filter="url(#YdB34XluXfZ4XPcJY07H6QOi35hINhqp)"><path d="M 213.48 308.62 L 213.48 308.62 C 214.898 308.62 216.05 309.772 216.05 311.191 L 216.05 333.609 C 216.05 335.028 214.898 336.18 213.48 336.18 L 213.48 336.18 C 212.062 336.18 210.91 335.028 210.91 333.609 L 210.91 311.191 C 210.91 309.772 212.062 308.62 213.48 308.62 Z" style="stroke:none;fill:#FF4500;stroke-miterlimit:10;"/></g><defs><filter id="feeZBNvIOm4bbIcKnNCjJJd01TvPRpZb" x="-200%" y="-200%" width="400%" height="400%" filterUnits="objectBoundingBox" color-interpolation-filters="sRGB"><feGaussianBlur xmlns="http://www.w3.org/2000/svg" in="SourceGraphic" stdDeviation="1.2880827188517086"/><feOffset xmlns="http://www.w3.org/2000/svg" dx="0" dy="0" result="pf_100_offsetBlur"/><feFlood xmlns="http://www.w3.org/2000/svg" flood-color="#000000" flood-opacity="0.65"/><feComposite xmlns="http://www.w3.org/2000/svg" in2="pf_100_offsetBlur" operator="in" result="pf_100_dropShadow"/><feBlend xmlns="http://www.w3.org/2000/svg" in="SourceGraphic" in2="pf_100_dropShadow" mode="normal"/></filter></defs><g filter="url(#feeZBNvIOm4bbIcKnNCjJJd01TvPRpZb)"><path d="M 234.04 308.62 L 234.04 308.62 C 235.458 308.62 236.61 309.772 236.61 311.191 L 236.61 333.609 C 236.61 335.028 235.458 336.18 234.04 336.18 L 234.04 336.18 C 232.622 336.18 231.47 335.028 231.47 333.609 L 231.47 311.191 C 231.47 309.772 232.622 308.62 234.04 308.62 Z" style="stroke:none;fill:#FF4500;stroke-miterlimit:10;"/></g><defs><filter id="HVVwJcbHW9on1zUwfRDmBewaxUDO13I4" x="-200%" y="-200%" width="400%" height="400%" filterUnits="objectBoundingBox" color-interpolation-filters="sRGB"><feGaussianBlur xmlns="http://www.w3.org/2000/svg" in="SourceGraphic" stdDeviation="1.2880827188517086"/><feOffset xmlns="http://www.w3.org/2000/svg" dx="0" dy="0" result="pf_100_offsetBlur"/><feFlood xmlns="http://www.w3.org/2000/svg" flood-color="#000000" flood-opacity="0.65"/><feComposite xmlns="http://www.w3.org/2000/svg" in2="pf_100_offsetBlur" operator="in" result="pf_100_dropShadow"/><feBlend xmlns="http://www.w3.org/2000/svg" in="SourceGraphic" in2="pf_100_dropShadow" mode="normal"/></filter></defs><g filter="url(#HVVwJcbHW9on1zUwfRDmBewaxUDO13I4)"><path d="M 223.765 308.62 L 223.765 308.62 C 225.468 308.62 226.85 310.002 226.85 311.705 L 226.85 333.095 C 226.85 334.798 225.468 336.18 223.765 336.18 L 223.765 336.18 C 222.062 336.18 220.68 334.798 220.68 333.095 L 220.68 311.705 C 220.68 310.002 222.062 308.62 223.765 308.62 Z" style="stroke:none;fill:#FF4500;stroke-miterlimit:10;"/></g><defs><filter id="6WSN4ilfeyaOibTWGTiCA6QeuQUwcUiN" x="-200%" y="-200%" width="400%" height="400%" filterUnits="objectBoundingBox" color-interpolation-filters="sRGB"><feGaussianBlur xmlns="http://www.w3.org/2000/svg" in="SourceGraphic" stdDeviation="1.2880827188517086"/><feOffset xmlns="http://www.w3.org/2000/svg" dx="0" dy="0" result="pf_100_offsetBlur"/><feFlood xmlns="http://www.w3.org/2000/svg" flood-color="#000000" flood-opacity="0.65"/><feComposite xmlns="http://www.w3.org/2000/svg" in2="pf_100_offsetBlur" operator="in" result="pf_100_dropShadow"/><feBlend xmlns="http://www.w3.org/2000/svg" in="SourceGraphic" in2="pf_100_dropShadow" mode="normal"/></filter></defs><g filter="url(#6WSN4ilfeyaOibTWGTiCA6QeuQUwcUiN)"><path d="M 244.325 308.62 L 244.325 308.62 C 246.028 308.62 247.41 310.002 247.41 311.705 L 247.41 333.095 C 247.41 334.798 246.028 336.18 244.325 336.18 L 244.325 336.18 C 242.622 336.18 241.24 334.798 241.24 333.095 L 241.24 311.705 C 241.24 310.002 242.622 308.62 244.325 308.62 Z" style="stroke:none;fill:#FF4500;stroke-miterlimit:10;"/></g><defs><filter id="RxJZ4cx0PifQtw9VnCyjIpfKbbRmBJYA" x="-200%" y="-200%" width="400%" height="400%" filterUnits="objectBoundingBox" color-interpolation-filters="sRGB"><feGaussianBlur xmlns="http://www.w3.org/2000/svg" in="SourceGraphic" stdDeviation="1.2880827188517086"/><feOffset xmlns="http://www.w3.org/2000/svg" dx="0" dy="0" result="pf_100_offsetBlur"/><feFlood xmlns="http://www.w3.org/2000/svg" flood-color="#000000" flood-opacity="0.65"/><feComposite xmlns="http://www.w3.org/2000/svg" in2="pf_100_offsetBlur" operator="in" result="pf_100_dropShadow"/><feBlend xmlns="http://www.w3.org/2000/svg" in="SourceGraphic" in2="pf_100_dropShadow" mode="normal"/></filter></defs><g filter="url(#RxJZ4cx0PifQtw9VnCyjIpfKbbRmBJYA)"><path d="M 184.215 281.425 L 184.215 281.425 C 185.427 281.153 186.633 281.914 186.907 283.125 L 194.334 315.967 C 194.608 317.178 193.847 318.382 192.635 318.655 L 192.635 318.655 C 191.423 318.927 190.217 318.166 189.943 316.955 L 182.516 284.113 C 182.242 282.902 183.003 281.698 184.215 281.425 Z" style="stroke:none;fill:#282828;stroke-miterlimit:10;"/></g><defs><filter id="68eK4QKyyBZ5yX0zxsccxvZqWwArlti2" x="-200%" y="-200%" width="400%" height="400%" filterUnits="objectBoundingBox" color-interpolation-filters="sRGB"><feGaussianBlur xmlns="http://www.w3.org/2000/svg" in="SourceGraphic" stdDeviation="1.2880827188517086"/><feOffset xmlns="http://www.w3.org/2000/svg" dx="0" dy="0" result="pf_100_offsetBlur"/><feFlood xmlns="http://www.w3.org/2000/svg" flood-color="#000000" flood-opacity="0.65"/><feComposite xmlns="http://www.w3.org/2000/svg" in2="pf_100_offsetBlur" operator="in" result="pf_100_dropShadow"/><feBlend xmlns="http://www.w3.org/2000/svg" in="SourceGraphic" in2="pf_100_dropShadow" mode="normal"/></filter></defs><g filter="url(#68eK4QKyyBZ5yX0zxsccxvZqWwArlti2)"><path d="M 186.18 283.205 L 186.18 283.205 C 186.18 284.444 185.174 285.45 183.935 285.45 L 161.435 285.45 C 160.196 285.45 159.19 284.444 159.19 283.205 L 159.19 283.205 C 159.19 281.966 160.196 280.96 161.435 280.96 L 183.935 280.96 C 185.174 280.96 186.18 281.966 186.18 283.205 Z" style="stroke:none;fill:#282828;stroke-miterlimit:10;"/></g><defs><filter id="OKO4IhVis5A62Vrj4RjEe5cddBgPX4yc" x="-200%" y="-200%" width="400%" height="400%" filterUnits="objectBoundingBox" color-interpolation-filters="sRGB"><feGaussianBlur xmlns="http://www.w3.org/2000/svg" in="SourceGraphic" stdDeviation="1.2880827188517086"/><feOffset xmlns="http://www.w3.org/2000/svg" dx="0" dy="0" result="pf_100_offsetBlur"/><feFlood xmlns="http://www.w3.org/2000/svg" flood-color="#000000" flood-opacity="0.65"/><feComposite xmlns="http://www.w3.org/2000/svg" in2="pf_100_offsetBlur" operator="in" result="pf_100_dropShadow"/><feBlend xmlns="http://www.w3.org/2000/svg" in="SourceGraphic" in2="pf_100_dropShadow" mode="normal"/></filter></defs><g filter="url(#OKO4IhVis5A62Vrj4RjEe5cddBgPX4yc)"><mask id="_mask_bUK9jVAXoABOp9NqjrcmDXEIYr5n7RYF" x="-200%" y="-200%" width="400%" height="400%"><rect x="-200%" y="-200%" width="400%" height="400%" style="fill:white;"/><path d=" M 197.899 329.335 C 199.034 346.394 206.894 350.659 210.682 350.659 L 251.876 350.659" fill="black" stroke="none"/></mask><path d=" M 197.899 329.335 C 199.034 346.394 206.894 350.659 210.682 350.659 L 251.876 350.659" fill="none"/><path d=" M 197.899 329.335 C 199.034 346.394 206.894 350.659 210.682 350.659 L 251.876 350.659" fill="none" mask="url(#_mask_bUK9jVAXoABOp9NqjrcmDXEIYr5n7RYF)" vector-effect="non-scaling-stroke" stroke-width="6" stroke="rgb(40,40,40)" stroke-linejoin="miter" stroke-linecap="butt" stroke-miterlimit="4"/></g><defs><filter id="YmzrDWQccav2iqG4vnwA8MjHRPj707jY" x="-200%" y="-200%" width="400%" height="400%" filterUnits="objectBoundingBox" color-interpolation-filters="sRGB"><feGaussianBlur xmlns="http://www.w3.org/2000/svg" in="SourceGraphic" stdDeviation="1.2880827188517086"/><feOffset xmlns="http://www.w3.org/2000/svg" dx="0" dy="0" result="pf_100_offsetBlur"/><feFlood xmlns="http://www.w3.org/2000/svg" flood-color="#000000" flood-opacity="0.65"/><feComposite xmlns="http://www.w3.org/2000/svg" in2="pf_100_offsetBlur" operator="in" result="pf_100_dropShadow"/><feBlend xmlns="http://www.w3.org/2000/svg" in="SourceGraphic" in2="pf_100_dropShadow" mode="normal"/></filter></defs><g filter="url(#YmzrDWQccav2iqG4vnwA8MjHRPj707jY)"><ellipse vector-effect="non-scaling-stroke" cx="241.19403375749948" cy="351.22016667571313" rx="6.185071713210476" ry="6.172918439161947" fill="rgb(40,40,40)"/></g><defs><filter id="wrxV0qckE0MaOZfnr7Wtod4a7rYhHQxb" x="-200%" y="-200%" width="400%" height="400%" filterUnits="objectBoundingBox" color-interpolation-filters="sRGB"><feGaussianBlur xmlns="http://www.w3.org/2000/svg" in="SourceGraphic" stdDeviation="1.2880827188517086"/><feOffset xmlns="http://www.w3.org/2000/svg" dx="0" dy="0" result="pf_100_offsetBlur"/><feFlood xmlns="http://www.w3.org/2000/svg" flood-color="#000000" flood-opacity="0.65"/><feComposite xmlns="http://www.w3.org/2000/svg" in2="pf_100_offsetBlur" operator="in" result="pf_100_dropShadow"/><feBlend xmlns="http://www.w3.org/2000/svg" in="SourceGraphic" in2="pf_100_dropShadow" mode="normal"/></filter></defs><g filter="url(#wrxV0qckE0MaOZfnr7Wtod4a7rYhHQxb)"><ellipse vector-effect="non-scaling-stroke" cx="241.19403375749977" cy="351.22016667571353" rx="3.3736715758937805" ry="3.367047397370868" fill="rgb(255,69,0)"/></g><defs><filter id="PnGghiwOvyWZZz8IMiiItqAZWLUQnrb9" x="-200%" y="-200%" width="400%" height="400%" filterUnits="objectBoundingBox" color-interpolation-filters="sRGB"><feGaussianBlur xmlns="http://www.w3.org/2000/svg" in="SourceGraphic" stdDeviation="1.2880827188517086"/><feOffset xmlns="http://www.w3.org/2000/svg" dx="0" dy="0" result="pf_100_offsetBlur"/><feFlood xmlns="http://www.w3.org/2000/svg" flood-color="#000000" flood-opacity="0.65"/><feComposite xmlns="http://www.w3.org/2000/svg" in2="pf_100_offsetBlur" operator="in" result="pf_100_dropShadow"/><feBlend xmlns="http://www.w3.org/2000/svg" in="SourceGraphic" in2="pf_100_dropShadow" mode="normal"/></filter></defs><g filter="url(#PnGghiwOvyWZZz8IMiiItqAZWLUQnrb9)"><ellipse vector-effect="non-scaling-stroke" cx="218.7029614922597" cy="351.22016667571313" rx="6.185071713210476" ry="6.172918439161947" fill="rgb(40,40,40)"/></g><defs><filter id="ieIZHUiNUhEhjiqmtkCj0xljwPvWBaZ2" x="-200%" y="-200%" width="400%" height="400%" filterUnits="objectBoundingBox" color-interpolation-filters="sRGB"><feGaussianBlur xmlns="http://www.w3.org/2000/svg" in="SourceGraphic" stdDeviation="1.2880827188517086"/><feOffset xmlns="http://www.w3.org/2000/svg" dx="0" dy="0" result="pf_100_offsetBlur"/><feFlood xmlns="http://www.w3.org/2000/svg" flood-color="#000000" flood-opacity="0.65"/><feComposite xmlns="http://www.w3.org/2000/svg" in2="pf_100_offsetBlur" operator="in" result="pf_100_dropShadow"/><feBlend xmlns="http://www.w3.org/2000/svg" in="SourceGraphic" in2="pf_100_dropShadow" mode="normal"/></filter></defs><g filter="url(#ieIZHUiNUhEhjiqmtkCj0xljwPvWBaZ2)"><ellipse vector-effect="non-scaling-stroke" cx="218.7029614922598" cy="351.22016667571353" rx="3.3736715758937805" ry="3.367047397370868" fill="rgb(255,69,0)"/></g></g><defs><filter id="01jyq75OK2Aj5I1FACqGfQQT5xJzBrY7" x="-200%" y="-200%" width="400%" height="400%" filterUnits="objectBoundingBox" color-interpolation-filters="sRGB"><feGaussianBlur xmlns="http://www.w3.org/2000/svg" in="SourceGraphic" stdDeviation="2"/><feOffset xmlns="http://www.w3.org/2000/svg" dx="0" dy="4" result="pf_100_offsetBlur"/><feFlood xmlns="http://www.w3.org/2000/svg" flood-color="#000000" flood-opacity="0"/><feComposite xmlns="http://www.w3.org/2000/svg" in2="pf_100_offsetBlur" operator="in" result="pf_100_dropShadow"/><feBlend xmlns="http://www.w3.org/2000/svg" in="SourceGraphic" in2="pf_100_dropShadow" mode="normal"/></filter></defs><clipPath id="_clipPath_RbFGntltPLUop7QQt9VdCw0zp5BTnULE"><rect x="74.472" y="164.899" width="97.892" height="97.7" transform="matrix(1,0,0,1,0,0)" fill="rgb(255,255,255)"/></clipPath><g clip-path="url(#_clipPath_RbFGntltPLUop7QQt9VdCw0zp5BTnULE)"><g><g filter="url(#T2HTu2n7lHQhcgvSP2hU1g3FOkUGqxhm)"><defs><filter id="kmVAik2iZkEFquEXVDSfRc1808EFUCx0" x="-200%" y="-200%" width="400%" height="400%" filterUnits="objectBoundingBox" color-interpolation-filters="sRGB"><feGaussianBlur xmlns="http://www.w3.org/2000/svg" in="SourceGraphic" stdDeviation="2.146804531419514"/><feOffset xmlns="http://www.w3.org/2000/svg" dx="0" dy="0" result="pf_100_offsetBlur"/><feFlood xmlns="http://www.w3.org/2000/svg" flood-color="#000000" flood-opacity="0.65"/><feComposite xmlns="http://www.w3.org/2000/svg" in2="pf_100_offsetBlur" operator="in" result="pf_100_dropShadow"/><feBlend xmlns="http://www.w3.org/2000/svg" in="SourceGraphic" in2="pf_100_dropShadow" mode="normal"/></filter></defs><g filter="url(#kmVAik2iZkEFquEXVDSfRc1808EFUCx0)"><path d=" M 105.063 239.129 C 104.091 239.129 103.151 238.777 102.421 238.136 L 77.948 216.764 C 77.518 216.389 77.172 215.925 76.936 215.404 C 76.7 214.884 76.577 214.32 76.577 213.75 C 76.577 213.179 76.7 212.614 76.936 212.094 C 77.172 211.573 77.518 211.111 77.948 210.734 L 102.421 189.363 C 103.222 188.663 104.27 188.309 105.332 188.379 C 106.395 188.45 107.386 188.94 108.087 189.739 C 108.789 190.539 109.142 191.584 109.072 192.645 C 109.001 193.705 108.511 194.694 107.71 195.394 L 86.687 213.75 L 107.708 232.104 C 108.323 232.641 108.759 233.353 108.958 234.143 C 109.158 234.934 109.111 235.767 108.823 236.531 C 108.537 237.294 108.022 237.952 107.35 238.416 C 106.678 238.88 105.88 239.129 105.063 239.129 L 105.063 239.129 Z  M 141.773 239.129 C 140.955 239.129 140.158 238.881 139.486 238.417 C 138.813 237.953 138.299 237.295 138.011 236.532 C 137.724 235.768 137.676 234.935 137.875 234.144 C 138.075 233.353 138.512 232.641 139.127 232.104 L 160.148 213.75 L 139.129 195.394 C 138.327 194.694 137.838 193.705 137.767 192.645 C 137.696 191.584 138.05 190.539 138.751 189.739 C 139.452 188.94 140.443 188.45 141.506 188.379 C 142.569 188.309 143.616 188.663 144.417 189.363 L 168.891 210.734 C 169.32 211.111 169.666 211.573 169.902 212.094 C 170.138 212.614 170.261 213.179 170.261 213.75 C 170.261 214.32 170.138 214.884 169.902 215.404 C 169.666 215.925 169.32 216.389 168.891 216.764 L 144.417 238.136 C 143.687 238.778 142.746 239.13 141.773 239.129 L 141.773 239.129 Z  M 114.241 248.288 C 113.616 248.288 112.998 248.142 112.44 247.862 C 111.881 247.581 111.396 247.175 111.022 246.675 C 110.648 246.175 110.397 245.594 110.288 244.98 C 110.179 244.365 110.216 243.733 110.394 243.135 L 128.748 182.073 C 128.887 181.555 129.128 181.07 129.458 180.646 C 129.788 180.223 130.199 179.87 130.667 179.608 C 131.136 179.346 131.652 179.18 132.187 179.121 C 132.721 179.062 133.262 179.111 133.776 179.264 C 134.291 179.418 134.77 179.672 135.185 180.014 C 135.599 180.355 135.94 180.776 136.188 181.251 C 136.438 181.727 136.588 182.247 136.631 182.781 C 136.674 183.316 136.609 183.854 136.441 184.363 L 118.085 245.425 C 117.838 246.252 117.332 246.977 116.638 247.492 C 115.946 248.009 115.105 248.287 114.241 248.288 L 114.241 248.288 Z " fill="rgb(40,40,40)"/></g></g><defs><filter id="T2HTu2n7lHQhcgvSP2hU1g3FOkUGqxhm" x="-200%" y="-200%" width="400%" height="400%" filterUnits="objectBoundingBox" color-interpolation-filters="sRGB"><feGaussianBlur xmlns="http://www.w3.org/2000/svg" in="SourceGraphic" stdDeviation="2"/><feOffset xmlns="http://www.w3.org/2000/svg" dx="0" dy="4" result="pf_100_offsetBlur"/><feFlood xmlns="http://www.w3.org/2000/svg" flood-color="#000000" flood-opacity="0"/><feComposite xmlns="http://www.w3.org/2000/svg" in2="pf_100_offsetBlur" operator="in" result="pf_100_dropShadow"/><feBlend xmlns="http://www.w3.org/2000/svg" in="SourceGraphic" in2="pf_100_dropShadow" mode="normal"/></filter></defs></g></g><clipPath id="_clipPath_AfWuMQwUAdaGOZpSxpIHsUobwALCF3Tf"><rect x="88.131" y="105.825" width="68.297" height="68.163" transform="matrix(1,0,0,1,0,0)" fill="rgb(255,255,255)"/></clipPath><g clip-path="url(#_clipPath_AfWuMQwUAdaGOZpSxpIHsUobwALCF3Tf)"><g><g filter="url(#5pEuCJPu5svFa17hizAQEnrcxeCErJpP)"><defs><filter id="moRJZ86c5boqzhyBOQcyqSx1ELqVSmQi" x="-200%" y="-200%" width="400%" height="400%" filterUnits="objectBoundingBox" color-interpolation-filters="sRGB"><feGaussianBlur xmlns="http://www.w3.org/2000/svg" in="SourceGraphic" stdDeviation="2.146804531419514"/><feOffset xmlns="http://www.w3.org/2000/svg" dx="0" dy="0" result="pf_100_offsetBlur"/><feFlood xmlns="http://www.w3.org/2000/svg" flood-color="#000000" flood-opacity="0.65"/><feComposite xmlns="http://www.w3.org/2000/svg" in2="pf_100_offsetBlur" operator="in" result="pf_100_dropShadow"/><feBlend xmlns="http://www.w3.org/2000/svg" in="SourceGraphic" in2="pf_100_dropShadow" mode="normal"/></filter></defs><g filter="url(#moRJZ86c5boqzhyBOQcyqSx1ELqVSmQi)"><path d=" M 126.549 167.597 L 118.011 167.597 C 117.445 167.597 116.902 167.822 116.502 168.221 C 116.102 168.62 115.877 169.163 115.877 169.727 C 115.877 170.292 116.102 170.834 116.502 171.234 C 116.902 171.633 117.445 171.857 118.011 171.857 L 126.549 171.857 C 127.114 171.857 127.658 171.633 128.058 171.234 C 128.457 170.834 128.683 170.292 128.683 169.727 C 128.683 169.163 128.457 168.62 128.058 168.221 C 127.658 167.822 127.114 167.597 126.549 167.597 Z  M 128.683 161.207 L 115.877 161.207 C 115.311 161.207 114.768 161.432 114.367 161.831 C 113.968 162.23 113.742 162.772 113.742 163.337 C 113.742 163.902 113.968 164.444 114.367 164.843 C 114.768 165.243 115.311 165.467 115.877 165.467 L 128.683 165.467 C 129.249 165.467 129.792 165.243 130.191 164.843 C 130.592 164.444 130.817 163.902 130.817 163.337 C 130.817 162.772 130.592 162.23 130.191 161.831 C 129.792 161.432 129.249 161.207 128.683 161.207 Z  M 137.409 114.171 C 133.398 110.162 128.025 107.955 122.28 107.955 C 119.476 107.949 116.697 108.495 114.104 109.563 C 111.512 110.63 109.156 112.2 107.173 114.179 C 105.19 116.158 103.618 118.509 102.548 121.096 C 101.478 123.683 100.93 126.457 100.936 129.255 C 100.936 135.462 103.321 141.268 107.474 145.184 L 108.054 145.728 C 110.457 147.97 113.742 151.041 113.742 153.752 L 113.742 156.947 C 113.742 157.512 113.968 158.054 114.367 158.453 C 114.768 158.853 115.311 159.077 115.877 159.077 L 119.078 159.077 C 119.362 159.077 119.632 158.964 119.833 158.765 C 120.033 158.565 120.145 158.294 120.145 158.012 L 120.145 142.411 C 120.145 142.197 120.08 141.986 119.958 141.808 C 119.836 141.631 119.662 141.495 119.462 141.417 C 118.229 140.916 117.058 140.275 115.971 139.507 C 115.728 139.352 115.517 139.148 115.355 138.908 C 115.192 138.67 115.08 138.399 115.024 138.116 C 114.97 137.833 114.973 137.54 115.035 137.258 C 115.096 136.976 115.215 136.708 115.384 136.473 C 115.553 136.238 115.767 136.04 116.014 135.889 C 116.262 135.74 116.538 135.642 116.825 135.602 C 117.111 135.562 117.403 135.581 117.684 135.657 C 117.963 135.734 118.224 135.866 118.45 136.045 C 119.437 136.743 121.338 137.777 122.28 137.777 C 123.221 137.777 125.123 136.741 126.113 136.045 C 126.573 135.756 127.127 135.654 127.661 135.759 C 128.195 135.865 128.669 136.169 128.986 136.611 C 129.301 137.053 129.437 137.6 129.362 138.137 C 129.288 138.676 129.011 139.166 128.588 139.507 C 127.502 140.273 126.331 140.913 125.098 141.413 C 124.897 141.49 124.723 141.627 124.601 141.805 C 124.48 141.982 124.414 142.192 124.414 142.408 L 124.414 158.012 C 124.414 158.294 124.527 158.565 124.727 158.765 C 124.926 158.964 125.198 159.077 125.481 159.077 L 128.683 159.077 C 129.249 159.077 129.792 158.853 130.191 158.453 C 130.592 158.054 130.817 157.512 130.817 156.947 L 130.817 153.752 C 130.817 151.106 134.066 148.036 136.44 145.794 L 137.095 145.174 C 141.365 141.105 143.622 135.594 143.622 129.255 C 143.637 126.457 143.095 123.682 142.029 121.093 C 140.962 118.503 139.392 116.151 137.409 114.171 L 137.409 114.171 Z " fill="rgb(40,40,40)"/></g></g><defs><filter id="5pEuCJPu5svFa17hizAQEnrcxeCErJpP" x="-200%" y="-200%" width="400%" height="400%" filterUnits="objectBoundingBox" color-interpolation-filters="sRGB"><feGaussianBlur xmlns="http://www.w3.org/2000/svg" in="SourceGraphic" stdDeviation="2"/><feOffset xmlns="http://www.w3.org/2000/svg" dx="0" dy="4" result="pf_100_offsetBlur"/><feFlood xmlns="http://www.w3.org/2000/svg" flood-color="#000000" flood-opacity="0"/><feComposite xmlns="http://www.w3.org/2000/svg" in2="pf_100_offsetBlur" operator="in" result="pf_100_dropShadow"/><feBlend xmlns="http://www.w3.org/2000/svg" in="SourceGraphic" in2="pf_100_dropShadow" mode="normal"/></filter></defs></g></g></g></g></svg>