<svg width="93" height="138" viewBox="0 0 93 138" fill="none" xmlns="http://www.w3.org/2000/svg">
<path d="M22.3 114C17.8333 114 13.7 113.133 9.9 111.4C6.16667 109.6 3.1 107.1 0.7 103.9L8.1 95C11.9667 100.333 16.6 103 22 103C29.2667 103 32.9 98.7 32.9 90.1V53.9H8V43H45.9V89.4C45.9 97.6 43.9 103.767 39.9 107.9C35.9 111.967 30.0333 114 22.3 114Z" fill="#1785D5"/>
<path d="M84.5 34C84.5 37.866 81.366 41 77.5 41C73.634 41 70.5 37.866 70.5 34C70.5 30.134 73.634 27 77.5 27C81.366 27 84.5 30.134 84.5 34Z" fill="#1785D5"/>
<path d="M62.5 43C69.2333 43 74.6333 44.9667 78.7 48.9C82.7667 52.8333 84.8 58.6667 84.8 66.4V97H72.3V68C72.3 63.3333 71.2 59.8333 69 57.5C66.8 55.1 63.6667 53.9 59.6 53.9C55 53.9 51.3667 55.3 48.7 58.1C46.0333 60.8333 44.7 64.8 44.7 70V97H32.2V43.6H44.1V50.5C46.1667 48.0333 48.7667 46.1667 51.9 44.9C55.0333 43.6333 58.5667 43 62.5 43Z" fill="#1785D5"/>
<circle cx="26.5" cy="25" r="10" fill="#1785D4"/>
</svg>
