<svg width="50" height="75" viewBox="0 0 50 75" fill="none" xmlns="http://www.w3.org/2000/svg">
<path d="M1.0163 56.0782L4.33628 52.0704C6.41174 54.7103 8.91129 56.0813 11.828 56.0813C13.8832 56.0813 15.508 55.4668 16.6056 54.163C17.6894 52.8756 18.1882 50.9986 18.1882 48.6201V29.0857V28.5857H17.6882H4.80107V23.7038H24.1774V48.2424C24.1774 52.5924 23.1205 55.7734 21.093 57.8769C19.066 59.9446 16.0605 61.0171 11.9892 61.0171C9.65653 61.0171 7.5075 60.5635 5.5355 59.6617C3.72254 58.7835 2.21831 57.5894 1.0163 56.0782Z" fill="#FEFEFE" stroke="#FEFEFE"/>
<path d="M44.9301 18.3472C44.9301 20.159 43.4673 21.6246 41.6666 21.6246C39.866 21.6246 38.4032 20.159 38.4032 18.3472C38.4032 16.5354 39.866 15.0699 41.6666 15.0699C43.4673 15.0699 44.9301 16.5354 44.9301 18.3472Z" fill="#FEFEFE" stroke="#FEFEFE"/>
<path d="M32.4463 28.5857C29.865 28.5857 27.7709 29.3783 26.2254 31.0058C25.637 31.6116 25.1399 32.3184 24.7505 33.1234L24.7214 27.4332C25.7585 26.2272 26.9522 25.3182 28.4945 24.6924C30.1104 24.0367 31.9448 23.7038 34.0054 23.7038C37.5215 23.7038 40.2909 24.7311 42.3668 26.7464C44.4247 28.7441 45.4947 31.7418 45.4947 35.831V51.8435H39.7742V36.6944C39.7742 34.1082 39.1678 32.0752 37.8669 30.6886C36.567 29.267 34.7346 28.5857 32.4463 28.5857Z" fill="#FEFEFE" stroke="#FEFEFE"/>
<path d="M19.1237 13.4906C19.1237 16.1965 16.9387 18.3868 14.2473 18.3868C11.5559 18.3868 9.37097 16.1965 9.37097 13.4906C9.37097 10.7847 11.5559 8.59436 14.2473 8.59436C16.9387 8.59436 19.1237 10.7847 19.1237 13.4906Z" fill="#FEFEFE" stroke="#FEFEFE"/>
</svg>
