<svg width="35" height="35" viewBox="0 0 35 35" fill="none" xmlns="http://www.w3.org/2000/svg">
<path d="M7.10938 10.9375C6.35225 10.9375 5.61212 10.713 4.98258 10.2923C4.35305 9.87171 3.86239 9.27384 3.57265 8.57434C3.28291 7.87484 3.2071 7.10513 3.35481 6.36255C3.50252 5.61996 3.86711 4.93786 4.40248 4.40248C4.93786 3.86711 5.61996 3.50252 6.36255 3.35481C7.10513 3.2071 7.87484 3.28291 8.57434 3.57265C9.27384 3.86239 9.87171 4.35305 10.2923 4.98258C10.713 5.61212 10.9375 6.35225 10.9375 7.10938C10.9364 8.12433 10.5327 9.09739 9.81507 9.81507C9.09739 10.5327 8.12433 10.9364 7.10938 10.9375ZM17.5 10.9375C16.7429 10.9375 16.0027 10.713 15.3732 10.2923C14.7437 9.87171 14.253 9.27384 13.9633 8.57434C13.6735 7.87484 13.5977 7.10513 13.7454 6.36255C13.8931 5.61996 14.2577 4.93786 14.7931 4.40248C15.3285 3.86711 16.0106 3.50252 16.7532 3.35481C17.4958 3.2071 18.2655 3.28291 18.965 3.57265C19.6645 3.86239 20.2623 4.35305 20.683 4.98258C21.1036 5.61212 21.3281 6.35225 21.3281 7.10938C21.327 8.12433 20.9234 9.09739 20.2057 9.81507C19.488 10.5327 18.515 10.9364 17.5 10.9375ZM27.8906 10.9375C27.1335 10.9375 26.3934 10.713 25.7638 10.2923C25.1343 9.87171 24.6436 9.27384 24.3539 8.57434C24.0642 7.87484 23.9884 7.10513 24.1361 6.36255C24.2838 5.61996 24.6484 4.93786 25.1837 4.40248C25.7191 3.86711 26.4012 3.50252 27.1438 3.35481C27.8864 3.2071 28.6561 3.28291 29.3556 3.57265C30.0551 3.86239 30.653 4.35305 31.0736 4.98258C31.4942 5.61212 31.7188 6.35225 31.7188 7.10938C31.7177 8.12433 31.314 9.09739 30.5963 9.81507C29.8786 10.5327 28.9056 10.9364 27.8906 10.9375ZM7.10938 21.3281C6.35225 21.3281 5.61212 21.1036 4.98258 20.683C4.35305 20.2623 3.86239 19.6645 3.57265 18.965C3.28291 18.2655 3.2071 17.4958 3.35481 16.7532C3.50252 16.0106 3.86711 15.3285 4.40248 14.7931C4.93786 14.2577 5.61996 13.8931 6.36255 13.7454C7.10513 13.5977 7.87484 13.6735 8.57434 13.9633C9.27384 14.253 9.87171 14.7437 10.2923 15.3732C10.713 16.0027 10.9375 16.7429 10.9375 17.5C10.9364 18.515 10.5327 19.488 9.81507 20.2057C9.09739 20.9234 8.12433 21.327 7.10938 21.3281V21.3281ZM17.5 21.3281C16.7429 21.3281 16.0027 21.1036 15.3732 20.683C14.7437 20.2623 14.253 19.6645 13.9633 18.965C13.6735 18.2655 13.5977 17.4958 13.7454 16.7532C13.8931 16.0106 14.2577 15.3285 14.7931 14.7931C15.3285 14.2577 16.0106 13.8931 16.7532 13.7454C17.4958 13.5977 18.2655 13.6735 18.965 13.9633C19.6645 14.253 20.2623 14.7437 20.683 15.3732C21.1036 16.0027 21.3281 16.7429 21.3281 17.5C21.327 18.515 20.9234 19.488 20.2057 20.2057C19.488 20.9234 18.515 21.327 17.5 21.3281V21.3281ZM27.8906 21.3281C27.1335 21.3281 26.3934 21.1036 25.7638 20.683C25.1343 20.2623 24.6436 19.6645 24.3539 18.965C24.0642 18.2655 23.9884 17.4958 24.1361 16.7532C24.2838 16.0106 24.6484 15.3285 25.1837 14.7931C25.7191 14.2577 26.4012 13.8931 27.1438 13.7454C27.8864 13.5977 28.6561 13.6735 29.3556 13.9633C30.0551 14.253 30.653 14.7437 31.0736 15.3732C31.4942 16.0027 31.7188 16.7429 31.7188 17.5C31.7177 18.515 31.314 19.488 30.5963 20.2057C29.8786 20.9234 28.9056 21.327 27.8906 21.3281V21.3281ZM7.10938 31.7188C6.35225 31.7188 5.61212 31.4942 4.98258 31.0736C4.35305 30.653 3.86239 30.0551 3.57265 29.3556C3.28291 28.6561 3.2071 27.8864 3.35481 27.1438C3.50252 26.4012 3.86711 25.7191 4.40248 25.1837C4.93786 24.6484 5.61996 24.2838 6.36255 24.1361C7.10513 23.9884 7.87484 24.0642 8.57434 24.3539C9.27384 24.6436 9.87171 25.1343 10.2923 25.7638C10.713 26.3934 10.9375 27.1335 10.9375 27.8906C10.9364 28.9056 10.5327 29.8786 9.81507 30.5963C9.09739 31.314 8.12433 31.7177 7.10938 31.7188V31.7188ZM17.5 31.7188C16.7429 31.7188 16.0027 31.4942 15.3732 31.0736C14.7437 30.653 14.253 30.0551 13.9633 29.3556C13.6735 28.6561 13.5977 27.8864 13.7454 27.1438C13.8931 26.4012 14.2577 25.7191 14.7931 25.1837C15.3285 24.6484 16.0106 24.2838 16.7532 24.1361C17.4958 23.9884 18.2655 24.0642 18.965 24.3539C19.6645 24.6436 20.2623 25.1343 20.683 25.7638C21.1036 26.3934 21.3281 27.1335 21.3281 27.8906C21.327 28.9056 20.9234 29.8786 20.2057 30.5963C19.488 31.314 18.515 31.7177 17.5 31.7188V31.7188ZM27.8906 31.7188C27.1335 31.7188 26.3934 31.4942 25.7638 31.0736C25.1343 30.653 24.6436 30.0551 24.3539 29.3556C24.0642 28.6561 23.9884 27.8864 24.1361 27.1438C24.2838 26.4012 24.6484 25.7191 25.1837 25.1837C25.7191 24.6484 26.4012 24.2838 27.1438 24.1361C27.8864 23.9884 28.6561 24.0642 29.3556 24.3539C30.0551 24.6436 30.653 25.1343 31.0736 25.7638C31.4942 26.3934 31.7188 27.1335 31.7188 27.8906C31.7177 28.9056 31.314 29.8786 30.5963 30.5963C29.8786 31.314 28.9056 31.7177 27.8906 31.7188V31.7188Z" fill="black"/>
</svg>
