<svg width="35" height="35" viewBox="0 0 35 35" fill="none" xmlns="http://www.w3.org/2000/svg">
<path d="M8.75 9.84375C10.5622 9.84375 12.0312 8.37468 12.0312 6.5625C12.0312 4.75032 10.5622 3.28125 8.75 3.28125C6.93782 3.28125 5.46875 4.75032 5.46875 6.5625C5.46875 8.37468 6.93782 9.84375 8.75 9.84375Z" stroke="#FEFEFE" stroke-width="3" stroke-linecap="round" stroke-linejoin="round"/>
<path d="M17.5 31.7188C19.3122 31.7188 20.7812 30.2497 20.7812 28.4375C20.7812 26.6253 19.3122 25.1562 17.5 25.1562C15.6878 25.1562 14.2188 26.6253 14.2188 28.4375C14.2188 30.2497 15.6878 31.7188 17.5 31.7188Z" stroke="#FEFEFE" stroke-width="3" stroke-linecap="round" stroke-linejoin="round"/>
<path d="M17.5 17.5V25.1562" stroke="#FEFEFE" stroke-width="3" stroke-linecap="round" stroke-linejoin="round"/>
<path d="M26.25 9.84375C28.0622 9.84375 29.5312 8.37468 29.5312 6.5625C29.5312 4.75032 28.0622 3.28125 26.25 3.28125C24.4378 3.28125 22.9688 4.75032 22.9688 6.5625C22.9688 8.37468 24.4378 9.84375 26.25 9.84375Z" stroke="#FEFEFE" stroke-width="3" stroke-linecap="round" stroke-linejoin="round"/>
<path d="M8.75 9.84375C8.75 14.9481 13.4613 17.5 17.5 17.5C21.5387 17.5 26.25 14.9481 26.25 9.84375" stroke="#FEFEFE" stroke-width="3" stroke-linecap="round" stroke-linejoin="round"/>
</svg>
