<svg width="35" height="35" viewBox="0 0 35 35" fill="none" xmlns="http://www.w3.org/2000/svg">
<path d="M25.6204 21.108L31.2744 25.0879C31.4409 25.1619 31.6233 25.1932 31.805 25.1788C31.9867 25.1644 32.1619 25.1049 32.3147 25.0056C32.4675 24.9063 32.5931 24.7704 32.68 24.6102C32.767 24.4501 32.8125 24.2707 32.8125 24.0885V10.9115C32.8125 10.7293 32.767 10.5499 32.68 10.3898C32.5931 10.2296 32.4675 10.0937 32.3147 9.99439C32.1619 9.89509 31.9867 9.83556 31.805 9.82119C31.6233 9.80682 31.4409 9.83807 31.2744 9.9121L25.6204 13.892C25.477 13.9929 25.36 14.1268 25.2793 14.2824C25.1985 14.438 25.1563 14.6108 25.1562 14.7861V20.2139C25.1563 20.3892 25.1985 20.5619 25.2793 20.7176C25.36 20.8732 25.477 21.0071 25.6204 21.108V21.108Z" stroke="#FEFEFE" stroke-width="3" stroke-linecap="round" stroke-linejoin="round"/>
<path d="M18.3203 26.25H5.74219C4.80026 26.2473 3.89768 25.8719 3.23163 25.2059C2.56558 24.5398 2.19021 23.6372 2.1875 22.6953V12.3047C2.19021 11.3628 2.56558 10.4602 3.23163 9.79413C3.89768 9.12809 4.80026 8.75271 5.74219 8.75H18.3531C19.2863 8.75288 20.1804 9.12486 20.8403 9.78472C21.5001 10.4446 21.8721 11.3387 21.875 12.2719V22.6953C21.8723 23.6372 21.4969 24.5398 20.8309 25.2059C20.1648 25.8719 19.2622 26.2473 18.3203 26.25Z" stroke="#FEFEFE" stroke-width="3" stroke-miterlimit="10"/>
</svg>
